<svg width="69" height="69" viewBox="0 0 69 69" fill="none" xmlns="http://www.w3.org/2000/svg">
<circle cx="34.104" cy="34.104" r="34.104" fill="#FF3B30" fill-opacity="0.3"/>
<path fill-rule="evenodd" clip-rule="evenodd" d="M35.0072 23.2029C40.3132 23.7677 44.4465 28.2583 44.4465 33.7142C44.4465 39.5525 39.7136 44.2853 33.8753 44.2853C28.037 44.2853 23.3041 39.5525 23.3041 33.7142C23.3041 33.0889 22.7973 32.582 22.172 32.582C21.5467 32.582 21.0398 33.0889 21.0398 33.7142C21.0398 40.803 26.7865 46.5497 33.8753 46.5497C40.9642 46.5497 46.7108 40.803 46.7108 33.7142C46.7108 26.6253 40.9642 20.8787 33.8753 20.8787V20.8788C33.8752 20.8788 33.8751 20.8788 33.875 20.8788C33.2497 20.8788 32.7428 21.3857 32.7428 22.0109V25.9092C29.1067 26.4509 26.306 29.5613 26.306 33.335C26.306 37.4923 29.7047 40.8444 33.875 40.8444C38.0453 40.8444 41.444 37.4923 41.444 33.335C41.444 31.2312 40.5706 29.3295 39.1698 27.9689C38.7213 27.5332 38.0045 27.5437 37.5689 27.9922C37.1332 28.4407 37.1436 29.1575 37.5922 29.5932C38.5745 30.5473 39.1796 31.8712 39.1796 33.335C39.1796 36.2219 36.8146 38.5801 33.875 38.5801C30.9354 38.5801 28.5703 36.2219 28.5703 33.335C28.5703 30.4482 30.9354 28.09 33.875 28.09H35.0072V23.2029ZM34.5443 33.9735C35.1018 33.7191 35.4892 33.1569 35.4892 32.5041C35.4892 31.6126 34.7665 30.8898 33.875 30.8898C32.9835 30.8898 32.2607 31.6126 32.2607 32.5041C32.2607 33.1543 32.6452 33.7147 33.1991 33.9705V36.0014H34.5443V33.9735Z" fill="white"/>
<path d="M52.5955 19.0592L33.5291 10.4893L15.6101 19.0592C14.9568 19.0592 14.4272 19.5753 14.4272 20.2121V37.8685C14.4272 44.0834 17.8917 49.8161 23.4687 52.8295L33.5291 58.2653C33.7074 58.3617 33.9052 58.41 34.1026 58.41C34.3001 58.41 34.4979 58.3617 34.6762 58.2653L44.7366 52.8295C50.3136 49.8161 53.778 44.0834 53.778 37.8685V20.2121C53.7784 19.5753 53.2485 19.0592 52.5955 19.0592Z" fill="white"/>
<path fill-rule="evenodd" clip-rule="evenodd" d="M34.4508 22.2273C33.3426 22.2273 32.3797 23.0881 32.3797 24.2289V36.7945C32.3797 37.9323 33.3419 38.796 34.4508 38.796C35.5597 38.796 36.5219 37.9323 36.5219 36.7945V24.2289C36.5219 23.0911 35.5597 22.2273 34.4508 22.2273ZM34.4507 41.5567C33.3055 41.5567 32.3796 42.4865 32.3796 43.6295C32.3796 44.7725 33.3055 45.7023 34.4507 45.7023C35.596 45.7023 36.5218 44.7725 36.5218 43.6295C36.5218 42.4865 35.596 41.5567 34.4507 41.5567Z" fill="#FF0B0B"/>
</svg>
