<svg width="85" height="82" viewBox="0 0 85 82" fill="none" xmlns="http://www.w3.org/2000/svg">
<path d="M24.8378 48.5977C24.8378 48.6381 24.8273 48.6792 24.805 48.7169C24.7387 48.8284 24.595 48.8654 24.4833 48.7991C24.2167 48.6416 23.9446 48.4903 23.6738 48.3509C23.5587 48.2917 23.514 48.1501 23.5726 48.0344C23.6319 47.9194 23.7736 47.8741 23.8894 47.9334C24.1679 48.077 24.4484 48.2324 24.7227 48.3948C24.7966 48.4387 24.8378 48.5168 24.8378 48.597L24.8378 48.5977Z" fill="#DADEE7"/>
<path d="M32.7006 63.7466C32.7006 63.7529 32.7006 63.7592 32.7006 63.7655C32.6504 64.4019 32.5625 65.0418 32.439 65.6657C32.4138 65.7926 32.2903 65.8755 32.1626 65.8504C32.0356 65.8253 31.9526 65.7013 31.9777 65.5751C32.0977 64.9679 32.1836 64.3468 32.2324 63.7285C32.2429 63.5995 32.3559 63.5027 32.485 63.5131C32.6085 63.5229 32.7013 63.6253 32.7013 63.7466L32.7006 63.7466ZM32.6511 60.6774C32.6511 60.7952 32.5625 60.8969 32.4424 60.9102C32.3133 60.9248 32.1975 60.8321 32.1829 60.7031C32.1138 60.0855 32.0077 59.4672 31.8674 58.8663C31.8367 58.7408 31.9163 58.614 32.0433 58.5847C32.1696 58.5554 32.2959 58.6335 32.3252 58.7604C32.4697 59.3794 32.5785 60.0158 32.6504 60.6516C32.6511 60.6606 32.6518 60.669 32.6518 60.6781L32.6511 60.6774ZM31.5632 68.5628C31.5632 68.5921 31.5576 68.6221 31.5457 68.6513C31.3057 69.2411 31.0279 69.8238 30.7195 70.3829C30.6567 70.4965 30.5136 70.5377 30.4006 70.4749C30.2868 70.4122 30.2457 70.27 30.3085 70.1563C30.6078 69.6133 30.8779 69.0473 31.111 68.4743C31.1598 68.3544 31.2973 68.2965 31.4173 68.3453C31.5087 68.3823 31.5639 68.4701 31.5639 68.5628L31.5632 68.5628ZM31.3524 55.9023C31.3524 55.9922 31.3008 56.078 31.2136 56.117C31.0949 56.17 30.9561 56.117 30.903 55.9985C30.6497 55.4325 30.3601 54.8762 30.0426 54.3443C29.9756 54.2335 30.0126 54.0892 30.1235 54.0223C30.2352 53.956 30.3789 53.9923 30.4459 54.1031C30.7732 54.6503 31.0712 55.224 31.3322 55.8061C31.3461 55.8375 31.3524 55.8695 31.3524 55.9016L31.3524 55.9023ZM29.014 72.8025C29.014 72.8555 28.9958 72.9091 28.9595 72.9524C28.552 73.4403 28.1096 73.9109 27.6448 74.3507C27.5506 74.44 27.402 74.4358 27.3126 74.3424C27.2233 74.2483 27.2275 74.0991 27.321 74.0105C27.7725 73.5832 28.2017 73.1259 28.5981 72.6519C28.6811 72.5522 28.829 72.539 28.9288 72.6219C28.9847 72.668 29.0133 72.7349 29.0133 72.8025L29.014 72.8025ZM28.6595 51.7491C28.6595 51.8132 28.633 51.878 28.5813 51.924C28.4843 52.0105 28.3357 52.0021 28.2498 51.9052L28.1249 51.7672C27.7481 51.3545 27.3454 50.9572 26.9295 50.587C26.8318 50.5013 26.8235 50.3528 26.91 50.2559C26.9965 50.159 27.1445 50.1499 27.2415 50.2364C27.6699 50.617 28.0844 51.0255 28.4724 51.4507L28.6002 51.5922C28.6399 51.6368 28.6595 51.6926 28.6595 51.7484L28.6595 51.7491ZM25.2987 76.0746C25.2987 76.152 25.2603 76.228 25.1905 76.2726C24.6532 76.6163 24.0893 76.932 23.5143 77.2109C23.3978 77.2673 23.2568 77.2185 23.2003 77.1021C23.1438 76.985 23.1926 76.8449 23.3091 76.7884C23.8674 76.518 24.4152 76.2113 24.9372 75.8773C25.0461 75.8076 25.1919 75.839 25.2617 75.9485C25.2868 75.9875 25.2987 76.0314 25.2987 76.0746Z" fill="#DADEE7"/>
<path d="M10.2904 47.6275C10.2904 47.7189 10.2366 47.8053 10.1473 47.8436C9.58626 48.0813 9.03287 48.3553 8.50252 48.6571C8.39016 48.7213 8.24641 48.6822 8.18221 48.5693C8.11801 48.4571 8.15708 48.3135 8.27013 48.2493C8.81584 47.9384 9.38598 47.6568 9.96379 47.4114C10.0831 47.3606 10.2213 47.4163 10.2722 47.5362C10.2848 47.5662 10.2911 47.5969 10.2911 47.6282L10.2904 47.6275ZM6.14522 50.1879C6.14522 50.2542 6.11731 50.3204 6.06288 50.3664C5.92191 50.4863 5.78304 50.609 5.64487 50.7345C5.33084 51.021 5.02449 51.3228 4.73419 51.633C4.64557 51.7278 4.49693 51.7327 4.40202 51.6442C4.30711 51.5556 4.30223 51.4071 4.39085 51.3123C4.68953 50.9938 5.00425 50.6829 5.32805 50.388C5.46971 50.259 5.61277 50.1322 5.75792 50.0095C5.85701 49.9258 6.00495 49.9377 6.08939 50.036C6.12707 50.0799 6.14522 50.1343 6.14522 50.1879ZM4.94005 73.6324C4.94005 73.6944 4.91563 73.7565 4.86748 73.8025C4.77327 73.8917 4.62463 73.8882 4.53531 73.7948C4.44459 73.7 4.35457 73.6038 4.26594 73.5062C3.93098 73.1395 3.60928 72.7534 3.30921 72.3588C3.23035 72.2556 3.25059 72.1085 3.35387 72.0305C3.45715 71.9517 3.60439 71.9719 3.68255 72.0751C3.97425 72.4585 4.28688 72.8335 4.61207 73.1897C4.6986 73.2845 4.78653 73.3779 4.87446 73.4707C4.91772 73.516 4.93936 73.5745 4.93936 73.6324L4.94005 73.6324ZM2.94773 53.8623C2.94773 53.9048 2.93586 53.9487 2.91144 53.9878C2.58555 54.5029 2.28618 55.0425 2.02239 55.5911C1.96587 55.7082 1.8263 55.757 1.70906 55.7012C1.59183 55.6454 1.54228 55.506 1.5988 55.3882C1.87026 54.8236 2.17801 54.268 2.51367 53.7375C2.58345 53.6281 2.72791 53.5953 2.83817 53.6643C2.90865 53.7089 2.94773 53.7849 2.94773 53.863L2.94773 53.8623ZM2.13614 69.6506C2.13614 69.7371 2.08869 69.82 2.00565 69.8611C1.88911 69.919 1.74814 69.8716 1.69092 69.7552C1.41179 69.194 1.16266 68.6099 0.949118 68.0187C0.905852 67.896 0.968658 67.7622 1.09078 67.7183C1.2129 67.6744 1.34758 67.7378 1.39155 67.8598C1.59881 68.4349 1.84096 69.0023 2.11172 69.5468C2.12846 69.5802 2.13614 69.6158 2.13614 69.6513L2.13614 69.6506ZM0.998664 58.3222C0.998664 58.3425 0.995873 58.3627 0.990988 58.3829C0.834673 58.9712 0.710458 59.5756 0.62253 60.1793C0.603689 60.3076 0.484358 60.3968 0.356654 60.378C0.228252 60.3591 0.136137 60.2413 0.15777 60.1124C0.248489 59.4913 0.375495 58.8695 0.536695 58.263C0.570191 58.1375 0.698593 58.0629 0.824204 58.0964C0.929578 58.1243 0.998664 58.2191 0.998664 58.3229L0.998664 58.3222ZM0.65463 65.0136C0.65463 65.1272 0.572286 65.2269 0.456445 65.245C0.328042 65.2652 0.208014 65.1781 0.187777 65.0498C0.0900792 64.4315 0.0265757 63.8 5.78701e-05 63.1712C-0.00273349 63.0415 0.0949639 62.9321 0.224762 62.9272C0.35456 62.9216 0.46412 63.022 0.469005 63.1517C0.494825 63.7623 0.556236 64.3758 0.651142 64.9766C0.653236 64.9892 0.653932 65.0017 0.653932 65.0136L0.65463 65.0136Z" fill="#45CE4A"/>
<path d="M14.1032 46.5438C14.1032 46.6574 14.0202 46.7571 13.9043 46.7752C13.6008 46.8226 13.2944 46.8791 12.9944 46.9439C12.8674 46.9711 12.7424 46.8909 12.7152 46.7641C12.688 46.6351 12.769 46.5124 12.8953 46.4852C13.2044 46.419 13.5198 46.3605 13.8318 46.3117C13.9602 46.2914 14.0802 46.3793 14.1004 46.5075C14.1025 46.5201 14.1032 46.5319 14.1032 46.5438Z" fill="#DADEE7"/>
<path d="M16.0081 50.0928C15.9258 50.0865 15.8483 50.1326 15.8155 50.2085L14.8755 52.3695C13.7869 52.5361 12.7164 52.8777 11.7102 53.3984L9.67735 52.2057C9.60617 52.1639 9.51615 52.1715 9.45335 52.2252L7.30331 54.062C7.2405 54.1157 7.21887 54.2035 7.24888 54.2802L8.1135 56.4705C7.44287 57.3837 6.93904 58.3861 6.60547 59.4352L4.32284 60.0277C4.24259 60.0486 4.18467 60.1176 4.17839 60.1999L3.95857 63.0175C3.95229 63.0998 3.99905 63.1771 4.07441 63.2099L6.23771 64.1489C6.40449 65.2363 6.74713 66.305 7.26772 67.3109L6.07372 69.3415C6.03185 69.4126 6.03952 69.5025 6.09325 69.5653L7.93276 71.713C7.98649 71.7757 8.07442 71.7973 8.15118 71.7674L10.3438 70.9037C11.258 71.5736 12.2614 72.0769 13.3117 72.4101L13.9049 74.6902C13.9258 74.7704 13.9949 74.8283 14.0772 74.8345L16.8979 75.0541C16.9802 75.0604 17.0577 75.0137 17.0905 74.9384L18.0305 72.7774C19.1191 72.6108 20.1896 72.2686 21.1959 71.7485L23.2287 72.9413C23.2998 72.9831 23.3899 72.9754 23.4527 72.9217L25.6027 71.0842C25.6655 71.0305 25.6872 70.9427 25.6571 70.866L24.7925 68.6758C25.4631 67.7626 25.967 66.7595 26.3005 65.7111L28.5832 65.1185C28.6634 65.0976 28.7214 65.0286 28.7276 64.9464L28.9474 62.1287C28.9537 62.0465 28.907 61.9691 28.8316 61.9363L26.6683 60.9974C26.5008 59.9099 26.1589 58.8406 25.6383 57.8354L26.8323 55.8048C26.8742 55.7336 26.8665 55.6437 26.8128 55.581L24.974 53.4333C24.9202 53.3705 24.8323 53.3489 24.7555 53.3789L22.5629 54.2426C21.6488 53.5727 20.6446 53.0694 19.595 52.7362L19.0019 50.456C18.9809 50.3758 18.9118 50.318 18.8295 50.3117L16.0088 50.0921L16.0081 50.0928Z" fill="#318C07"/>
<path d="M19.3194 62.5826C19.3194 63.1695 19.1387 63.7411 18.7926 64.2298C17.8798 65.518 16.0884 65.824 14.7995 64.913C14.175 64.471 13.7598 63.8129 13.6307 63.0601C13.5016 62.3065 13.6739 61.5481 14.1157 60.9242C14.5581 60.3003 15.2161 59.8856 15.9705 59.7566C16.7249 59.6276 17.4841 59.7998 18.1087 60.2411C18.7332 60.683 19.1485 61.3404 19.2776 62.0939C19.3055 62.257 19.3194 62.4202 19.3194 62.5826ZM14.295 62.5735C14.295 63.2504 14.6125 63.9175 15.2064 64.3379C16.1785 65.0252 17.5295 64.7944 18.2168 63.8234C18.5504 63.3529 18.6802 62.7799 18.5825 62.2131C18.4855 61.645 18.1722 61.1487 17.7018 60.8162C17.2308 60.483 16.6579 60.3533 16.0898 60.4509C15.5211 60.5478 15.0242 60.8608 14.6914 61.3306C14.4234 61.7084 14.295 62.1434 14.295 62.5742L14.295 62.5735Z" fill="white" stroke="white" stroke-width="0.6"/>
<path d="M23.634 62.6247C23.634 62.8136 23.6263 63.0032 23.6116 63.1935C23.463 65.1035 22.5781 66.8407 21.121 68.0864C19.7707 69.2407 18.1113 69.8054 16.4588 69.8047C14.4316 69.8047 12.4162 68.9542 10.9982 67.298C8.42457 64.2935 8.77837 59.7569 11.7868 57.1867C11.8105 57.1665 11.8342 57.1463 11.8579 57.1268C12.1929 56.8479 12.5523 56.5998 12.9284 56.3878C12.9298 56.3872 12.9312 56.3858 12.9326 56.3851C12.9382 56.3816 12.9438 56.3788 12.9494 56.376C12.9591 56.3704 12.9689 56.3648 12.9787 56.3593C12.9842 56.3565 12.9898 56.353 12.9947 56.3502C13.0115 56.3411 13.0289 56.3314 13.0457 56.3223L13.3806 56.9413C12.978 57.1588 12.5955 57.4209 12.2438 57.7214C10.3234 59.363 9.60322 61.8927 10.1692 64.1917C10.4029 65.1398 10.8551 66.0488 11.5327 66.8407C12.8119 68.3338 14.629 69.1006 16.4574 69.1013C17.9473 69.1013 19.4441 68.5918 20.6619 67.5517C23.3744 65.2339 23.694 61.1427 21.373 58.4324C20.6102 57.5415 19.6214 56.8751 18.5146 56.505L18.7386 55.8371C19.9668 56.2477 21.0624 56.9866 21.9082 57.9751C23.0303 59.2856 23.6326 60.9189 23.6326 62.6254L23.634 62.6247Z" fill="white" stroke="white" stroke-width="0.6"/>
<circle cx="42.1506" cy="39.048" r="36.3488" fill="#DAE4F4" fill-opacity="0.3"/>
<path d="M66.6505 22.1408C63.4327 21.0337 60.8536 18.4391 59.7525 15.1978C59.0531 13.1378 57.1251 11.7539 54.957 11.7539H27.0097C24.8411 11.7539 22.9131 13.1378 22.2137 15.1978C21.1126 18.4391 18.5355 21.0337 15.3171 22.1408C13.2689 22.8447 11.8926 24.7799 11.8926 26.9548V34.0309C11.8926 43.2647 14.6578 52.1562 19.8878 59.7429C24.6725 66.685 31.2675 72.1178 38.9578 75.4541C39.6019 75.7334 40.2925 75.8723 40.9831 75.8723C41.6742 75.8723 42.3648 75.7334 43.0079 75.4541C50.6992 72.1178 57.2942 66.685 62.0789 59.7429C67.3088 52.1562 70.0741 43.2647 70.0741 34.0309V26.9548C70.0741 24.7799 68.6978 22.8447 66.6505 22.1408Z" fill="#0F71F2"/>
<ellipse cx="69.6992" cy="16.6311" rx="12.8398" ry="13.2678" fill="white"/>
<path d="M69.6998 1.06641C73.6945 1.06641 77.5256 2.7062 80.3503 5.62505C83.175 8.5439 84.7619 12.5027 84.7619 16.6306C84.7619 20.7585 83.175 24.7173 80.3503 27.6361C77.5256 30.555 73.6945 32.1948 69.6998 32.1948C65.7051 32.1948 61.874 30.555 59.0493 27.6361C56.2246 24.7173 54.6377 20.7585 54.6377 16.6306C54.6377 12.5027 56.2246 8.5439 59.0493 5.62505C61.874 2.7062 65.7051 1.06641 69.6998 1.06641ZM69.6998 7.73677C69.4266 7.73653 69.1564 7.79517 68.9064 7.90894C68.6564 8.0227 68.4321 8.18911 68.2478 8.39751C68.0635 8.60591 67.9233 8.85174 67.8362 9.11928C67.7491 9.38683 67.7169 9.67021 67.7417 9.95133L68.5271 18.8585C68.5576 19.158 68.6942 19.4352 68.9108 19.6366C69.1273 19.8381 69.4084 19.9496 69.6998 19.9496C69.9912 19.9496 70.2723 19.8381 70.4888 19.6366C70.7054 19.4352 70.8421 19.158 70.8725 18.8585L71.6557 9.95133C71.6806 9.6704 71.6484 9.3872 71.5614 9.11981C71.4744 8.85242 71.3344 8.6067 71.1504 8.39833C70.9664 8.18996 70.7423 8.02351 70.4926 7.90961C70.2428 7.7957 69.9728 7.73684 69.6998 7.73677ZM69.6998 25.5244C70.1563 25.5244 70.5942 25.337 70.917 25.0034C71.2398 24.6698 71.4212 24.2174 71.4212 23.7456C71.4212 23.2739 71.2398 22.8215 70.917 22.4879C70.5942 22.1543 70.1563 21.9669 69.6998 21.9669C69.2433 21.9669 68.8054 22.1543 68.4826 22.4879C68.1598 22.8215 67.9784 23.2739 67.9784 23.7456C67.9784 24.2174 68.1598 24.6698 68.4826 25.0034C68.8054 25.337 69.2433 25.5244 69.6998 25.5244Z" fill="#E40000"/>
<path d="M10.2096 18.5992C11.3069 12.3022 18.2104 0.185108 37.0459 2.09245" stroke="#318C07" stroke-width="2" stroke-linejoin="round" stroke-dasharray="4 4"/>
<path d="M49.2949 80.614C57.7236 77.98 75.3186 66.1798 78.2686 40.0508" stroke="#F2A20C" stroke-width="2" stroke-linecap="round" stroke-linejoin="round" stroke-dasharray="4 4"/>
<path d="M46.4546 37.5361C48.661 35.9269 50.0979 33.3226 50.0979 30.3887C50.0979 25.5133 46.1314 21.5469 41.256 21.5469C36.3806 21.5469 32.4142 25.5133 32.4142 30.3887C32.4142 33.3226 33.8509 35.9269 36.0575 37.5361C30.5725 39.6351 26.667 44.9531 26.667 51.1671C26.667 53.8485 28.8485 56.0301 31.53 56.0301H50.982C53.6635 56.0301 55.845 53.8485 55.845 51.1671C55.845 44.9531 51.9395 39.6351 46.4546 37.5361ZM35.0667 30.3887C35.0667 26.976 37.8433 24.1995 41.256 24.1995C44.6688 24.1995 47.4453 26.976 47.4453 30.3887C47.4453 33.8015 44.6688 36.578 41.256 36.578C37.8433 36.578 35.0667 33.8015 35.0667 30.3887ZM50.982 53.3775H31.53C30.3112 53.3775 29.3196 52.3859 29.3196 51.167C29.3196 44.5852 34.6742 39.2305 41.2561 39.2305C47.838 39.2305 53.1926 44.5851 53.1926 51.167C53.1925 52.3859 52.2009 53.3775 50.982 53.3775Z" fill="white"/>
</svg>
