<svg width="23" height="18" viewBox="0 0 23 18" fill="none" xmlns="http://www.w3.org/2000/svg">
<path d="M22.3424 3.92668C22.1264 3.74389 21.8641 3.62633 21.5853 3.58741C21.3066 3.5485 21.0227 3.58979 20.766 3.70659L15.9894 5.8597L13.2141 0.787918C13.0815 0.55113 12.8893 0.354212 12.6571 0.21722C12.425 0.0802281 12.1612 0.00805664 11.8925 0.00805664C11.6239 0.00805664 11.3601 0.0802281 11.1279 0.21722C10.8958 0.354212 10.7036 0.55113 10.571 0.787918L7.79565 5.8597L3.0191 3.70659C2.76187 3.58996 2.47759 3.54861 2.19839 3.58721C1.91919 3.6258 1.65621 3.74281 1.43917 3.92499C1.22214 4.10717 1.05971 4.34727 0.970241 4.61814C0.880774 4.88901 0.867839 5.17985 0.9329 5.45779L3.33062 15.8215C3.37646 16.0221 3.46202 16.2112 3.58209 16.3773C3.70216 16.5435 3.85426 16.6832 4.02916 16.788C4.26596 16.9316 4.53669 17.0077 4.81267 17.0081C4.94682 17.0078 5.08028 16.9885 5.20914 16.9506C9.57961 15.7257 14.196 15.7257 18.5665 16.9506C18.9655 17.057 19.3899 16.9985 19.7465 16.788C19.9224 16.6845 20.0754 16.5452 20.1956 16.3789C20.3158 16.2125 20.4008 16.0227 20.445 15.8215L22.8522 5.45779C22.9165 5.17978 22.9029 4.88907 22.8128 4.61851C22.7227 4.34795 22.5598 4.10832 22.3424 3.92668Z" fill="url(#paint0_linear_3965_12095)"/>
<defs>
<linearGradient id="paint0_linear_3965_12095" x1="11.8921" y1="0.00805664" x2="11.8921" y2="17.0081" gradientUnits="userSpaceOnUse">
<stop stop-color="#FF8F11"/>
<stop offset="1" stop-color="#FFBC11"/>
</linearGradient>
</defs>
</svg>
