<svg width="14" height="14" viewBox="0 0 14 14" fill="none" xmlns="http://www.w3.org/2000/svg">
<path d="M7.00002 9.91699C7.1653 9.91699 7.30394 9.86099 7.41594 9.74899C7.52755 9.63738 7.58335 9.49894 7.58335 9.33366V6.98574C7.58335 6.82046 7.52755 6.68435 7.41594 6.57741C7.30394 6.47046 7.1653 6.41699 7.00002 6.41699C6.83474 6.41699 6.6963 6.4728 6.58469 6.58441C6.47269 6.69641 6.41669 6.83505 6.41669 7.00033V9.34824C6.41669 9.51352 6.47269 9.64963 6.58469 9.75658C6.6963 9.86352 6.83474 9.91699 7.00002 9.91699ZM7.00002 5.25033C7.1653 5.25033 7.30394 5.19433 7.41594 5.08233C7.52755 4.97071 7.58335 4.83227 7.58335 4.66699C7.58335 4.50171 7.52755 4.36308 7.41594 4.25108C7.30394 4.13946 7.1653 4.08366 7.00002 4.08366C6.83474 4.08366 6.6963 4.13946 6.58469 4.25108C6.47269 4.36308 6.41669 4.50171 6.41669 4.66699C6.41669 4.83227 6.47269 4.97071 6.58469 5.08233C6.6963 5.19433 6.83474 5.25033 7.00002 5.25033ZM7.00002 12.8337C6.19308 12.8337 5.43474 12.6804 4.72502 12.374C4.0153 12.0679 3.39794 11.6524 2.87294 11.1274C2.34794 10.6024 1.93241 9.98505 1.62635 9.27532C1.31991 8.5656 1.16669 7.80727 1.16669 7.00033C1.16669 6.19338 1.31991 5.43505 1.62635 4.72533C1.93241 4.0156 2.34794 3.39824 2.87294 2.87324C3.39794 2.34824 4.0153 1.93252 4.72502 1.62608C5.43474 1.32002 6.19308 1.16699 7.00002 1.16699C7.80696 1.16699 8.5653 1.32002 9.27502 1.62608C9.98474 1.93252 10.6021 2.34824 11.1271 2.87324C11.6521 3.39824 12.0676 4.0156 12.3737 4.72533C12.6801 5.43505 12.8334 6.19338 12.8334 7.00033C12.8334 7.80727 12.6801 8.5656 12.3737 9.27532C12.0676 9.98505 11.6521 10.6024 11.1271 11.1274C10.6021 11.6524 9.98474 12.0679 9.27502 12.374C8.5653 12.6804 7.80696 12.8337 7.00002 12.8337Z" fill="#93A0B5"/>
</svg>
