<svg width="161" height="25" viewBox="0 0 161 25" fill="none" xmlns="http://www.w3.org/2000/svg">
<path d="M19.5894 4.39843L9.8038 0L0.607085 4.39843C0.271766 4.39843 0 4.6633 0 4.99012V14.0521C0 17.2418 1.7781 20.1841 4.64041 21.7306L9.8038 24.5205C9.89533 24.57 9.99683 24.5948 10.0982 24.5948C10.1995 24.5948 10.301 24.57 10.3925 24.5205L15.5559 21.7306C18.4182 20.1841 20.1963 17.2418 20.1963 14.0521V4.99012C20.1965 4.6633 19.9246 4.39843 19.5894 4.39843Z" fill="url(#paint0_linear_4168_13799)"/>
<path fill-rule="evenodd" clip-rule="evenodd" d="M10.3293 4.61914C9.90249 4.61914 9.55649 4.96514 9.55649 5.39196V7.32075C7.61265 7.68032 6.13304 9.37126 6.13304 11.4147C6.13304 13.7216 8.01864 15.5793 10.3293 15.5793C12.64 15.5793 14.5256 13.7216 14.5256 11.4147C14.5256 10.2475 14.0408 9.19256 13.2643 8.43829C12.9581 8.14091 12.4689 8.14802 12.1715 8.45418C11.8741 8.76034 11.8812 9.24961 12.1874 9.54699C12.6783 10.0238 12.9799 10.6844 12.9799 11.4147C12.9799 12.8544 11.7999 14.0336 10.3293 14.0336C8.8587 14.0336 7.67867 12.8544 7.67867 11.4147C7.67867 9.97499 8.8587 8.79579 10.3293 8.79579H11.1021V6.21913C13.7469 6.59436 15.7809 8.86796 15.7809 11.6164C15.7809 14.6273 13.3402 17.0681 10.3293 17.0681C7.31844 17.0681 4.87766 14.6273 4.87766 11.6164C4.87766 11.1896 4.53166 10.8436 4.10485 10.8436C3.67803 10.8436 3.33203 11.1896 3.33203 11.6164C3.33203 15.4809 6.46481 18.6137 10.3293 18.6137C14.1938 18.6137 17.3266 15.4809 17.3266 11.6164C17.3266 7.75403 14.1972 4.62254 10.3355 4.61917L10.3293 4.61914ZM10.3293 9.94329C9.76089 9.94329 9.30009 10.4041 9.30009 10.9725C9.30009 11.3479 9.50108 11.6761 9.80078 11.8558V13.0034H10.8576V11.8559C11.1574 11.6763 11.3585 11.348 11.3585 10.9725C11.3585 10.4041 10.8977 9.94329 10.3293 9.94329Z" fill="white"/>
<path d="M33.7623 5.60685C30.1821 5.60685 27.3794 8.42761 27.3794 11.9536C27.3794 15.4795 30.1821 18.2641 33.7623 18.2641C37.3425 18.2641 40.1452 15.4795 40.1452 11.9536C40.1452 8.42761 37.3425 5.60685 33.7623 5.60685ZM33.7623 15.9497C31.5744 15.9497 29.8566 14.268 29.8566 11.9536C29.8566 9.6391 31.5744 7.92132 33.7623 7.92132C35.9502 7.92132 37.668 9.6391 37.668 11.9536C37.668 14.268 35.9502 15.9497 33.7623 15.9497Z" fill="#183360"/>
<path d="M47.3622 8.69884C46.1688 8.69884 45.2286 9.07856 44.5234 9.78375V8.97007H42.1366V17.9929H44.5234V13.9968C44.5234 11.7908 45.4094 10.8867 46.7655 10.8867C47.8685 10.8867 48.5918 11.7366 48.5918 13.0023V17.9929H50.9786V12.496C50.9786 10.2539 49.532 8.69884 47.3622 8.69884Z" fill="#183360"/>
<path d="M55.6656 17.9929V4.97399H53.2788V17.9929H55.6656Z" fill="#183360"/>
<path d="M59.5254 4.84741C58.6755 4.84741 58.0788 5.51644 58.0788 6.27588C58.0788 7.07148 58.6755 7.66818 59.5254 7.66818C60.3571 7.66818 60.9719 7.07148 60.9719 6.27588C60.9719 5.51644 60.3571 4.84741 59.5254 4.84741ZM60.7188 17.9929V8.97007H58.332V17.9929H60.7188Z" fill="#183360"/>
<path d="M68.6048 8.69884C67.4114 8.69884 66.4712 9.07856 65.766 9.78375V8.97007H63.3792V17.9929H65.766V13.9968C65.766 11.7908 66.652 10.8867 68.0081 10.8867C69.1111 10.8867 69.8344 11.7366 69.8344 13.0023V17.9929H72.2212V12.496C72.2212 10.2539 70.7747 8.69884 68.6048 8.69884Z" fill="#183360"/>
<path d="M83.0379 13.3097C82.9475 10.5613 80.8681 8.69884 78.4632 8.69884C75.8775 8.69884 73.7981 10.6517 73.7981 13.4905C73.7981 16.3294 75.8775 18.2641 78.4271 18.2641C80.398 18.2641 82.0073 17.36 82.8029 15.4795L80.6692 15.0275C80.0183 16.1305 79.1323 16.2209 78.4271 16.2209C77.3241 16.2209 76.4019 15.4253 76.1669 14.1234H83.0379V13.3097ZM78.4632 10.7783C79.4216 10.7783 80.2895 11.2845 80.5969 12.4418H76.2392C76.5285 11.3207 77.5592 10.7783 78.4632 10.7783Z" fill="#183360"/>
<path d="M93.7648 5.64301C91.1791 5.64301 89.4614 7.03531 89.4614 9.11472C89.4614 11.0495 90.8175 11.8632 92.3726 12.2067L95.1029 12.8034C96.459 13.1108 97.0738 13.5629 97.0738 14.702C97.0738 16.0401 95.9708 16.9622 94.1265 16.9622C92.246 16.9622 90.8537 16.0039 90.5824 14.3042L89.0817 14.6116C89.371 16.908 91.4323 18.228 93.9999 18.228C96.7122 18.228 98.5023 16.8357 98.5023 14.6297C98.5023 12.6949 97.1281 11.8451 95.4465 11.4834L92.8065 10.8867C91.6674 10.6517 90.9802 10.1635 90.9802 9.07856C90.9802 7.77667 92.1013 6.89066 93.7287 6.89066C95.3922 6.89066 96.6037 7.83091 96.8749 9.29554L98.3034 8.97007C97.8875 6.98107 96.1878 5.64301 93.7648 5.64301Z" fill="#183360"/>
<path d="M109.242 13.3097C109.152 10.6517 107.271 8.86158 104.866 8.86158C102.407 8.86158 100.255 10.7059 100.255 13.5629C100.255 16.4017 102.407 18.228 104.776 18.228C106.783 18.228 108.338 17.2515 109.043 15.3891L107.814 15.0998C107.181 16.5283 106.042 17.0165 104.776 17.0165C103.239 17.0165 101.72 15.8231 101.593 13.816H109.242V13.3097ZM104.866 10.0731C106.349 10.0731 107.597 11.0314 107.85 12.7853H101.648C101.919 11.0314 103.42 10.0731 104.866 10.0731Z" fill="#183360"/>
<path d="M115.444 16.9442C113.618 16.9442 112.135 15.6242 112.135 13.5448C112.135 11.5015 113.618 10.1273 115.444 10.1273C116.764 10.1273 117.958 10.8506 118.355 12.2248L119.675 11.827C119.133 10.0007 117.397 8.86158 115.444 8.86158C112.931 8.86158 110.797 10.7421 110.797 13.5448C110.797 16.3836 112.931 18.228 115.444 18.228C117.415 18.228 119.169 17.1069 119.657 15.2806L118.392 14.9371C117.958 16.2751 116.764 16.9442 115.444 16.9442Z" fill="#183360"/>
<path d="M130.148 9.07856H128.756V13.364C128.756 15.6784 127.526 16.9261 125.664 16.9261C124.181 16.9261 123.204 15.8231 123.204 14.1596V9.07856H121.812V14.4127C121.812 16.6729 123.241 18.2099 125.392 18.2099C126.875 18.2099 128.032 17.5951 128.756 16.5283V17.9748H130.148V9.07856Z" fill="#183360"/>
<path d="M138.285 8.98815C136.64 8.98815 135.428 9.94649 134.705 11.2665V9.07856H133.313V17.9929H134.705V14.5574C134.705 12.1525 135.916 10.3624 138.285 10.3624C138.448 10.3624 138.647 10.3624 138.81 10.3805L138.918 9.06048C138.665 8.98815 138.502 8.98815 138.285 8.98815Z" fill="#183360"/>
<path d="M141.596 5.4622C141.054 5.4622 140.656 5.89616 140.656 6.38437C140.656 6.90874 141.054 7.30654 141.596 7.30654C142.139 7.30654 142.554 6.90874 142.554 6.38437C142.554 5.89616 142.139 5.4622 141.596 5.4622ZM142.301 17.9929V9.07856H140.909V17.9929H142.301Z" fill="#183360"/>
<path d="M150.52 16.3836C150.068 16.7091 149.508 16.9261 149.002 16.9261C148.007 16.9261 147.356 16.2751 147.356 15.1179V10.2358H150.539V9.07856H147.356V6.23971H145.964V9.07856H144.029V10.2358H145.964V15.2083C145.964 17.1792 147.139 18.228 148.911 18.228C149.634 18.228 150.249 18.0291 150.973 17.5228L150.52 16.3836Z" fill="#183360"/>
<path d="M161 9.07856H159.463L156.208 16.2028L153.026 9.07856H151.471L155.467 17.8663L154.002 21.0668H155.539L161 9.07856Z" fill="#183360"/>
<defs>
<linearGradient id="paint0_linear_4168_13799" x1="10.0982" y1="0" x2="10.0982" y2="24.5948" gradientUnits="userSpaceOnUse">
<stop stop-color="#52B8FF"/>
<stop offset="1" stop-color="#7253FF"/>
</linearGradient>
</defs>
</svg>
