<svg width="90" height="84" viewBox="0 0 90 84" fill="none" xmlns="http://www.w3.org/2000/svg">
<circle cx="46.2307" cy="39.5042" r="37.3362" fill="#DAE4F4" fill-opacity="0.3"/>
<path d="M3.10452 75.0562C2.66471 75.0562 2.29579 74.9064 1.99776 74.6068C1.69972 74.3072 1.55122 73.9369 1.55226 73.4959C1.55226 73.0538 1.70128 72.683 1.99931 72.3834C2.29734 72.0838 2.66574 71.9346 3.10452 71.9356H31.0452C31.485 71.9356 31.8539 72.0854 32.1519 72.385C32.45 72.6845 32.5985 73.0548 32.5974 73.4959C32.5974 73.938 32.4484 74.3088 32.1504 74.6084C31.8523 74.908 31.4839 75.0572 31.0452 75.0562H3.10452ZM2.32839 65.0313C2.04381 64.8753 1.86271 64.6412 1.7851 64.3292C1.70748 64.0171 1.74629 63.718 1.90152 63.432L2.63884 62.1057H1.16419C0.827871 62.1057 0.550017 61.9955 0.330631 61.7749C0.111245 61.5544 0.00103484 61.2746 0 60.9355C0 60.5974 0.11021 60.3182 0.330631 60.0976C0.551052 59.8771 0.828906 59.7663 1.16419 59.7653H2.63884L1.90152 58.5171C1.74629 58.231 1.70748 57.9319 1.7851 57.6199C1.86271 57.3078 2.04381 57.0738 2.32839 56.9177C2.61297 56.7617 2.91048 56.7227 3.22094 56.8007C3.53139 56.8787 3.76423 57.0608 3.91945 57.3468L4.65677 58.5951L5.3941 57.3468C5.54932 57.0608 5.78216 56.8787 6.09261 56.8007C6.40307 56.7227 6.70058 56.7617 6.98516 56.9177C7.26974 57.0738 7.45084 57.3078 7.52845 57.6199C7.60607 57.9319 7.56726 58.231 7.41203 58.5171L6.67471 59.7653H8.14936C8.48568 59.7653 8.76353 59.8761 8.98292 60.0976C9.2023 60.3192 9.31251 60.5985 9.31355 60.9355C9.31355 61.2736 9.20334 61.5534 8.98292 61.7749C8.7625 61.9965 8.48464 62.1068 8.14936 62.1057H6.67471L7.41203 63.432C7.56726 63.718 7.60607 64.0171 7.52845 64.3292C7.45084 64.6412 7.26974 64.8753 6.98516 65.0313C6.70058 65.1873 6.40307 65.2263 6.09261 65.1483C5.78216 65.0703 5.54932 64.8883 5.3941 64.6022L4.65677 63.276L3.91945 64.6022C3.76423 64.8883 3.53139 65.0703 3.22094 65.1483C2.91048 65.2263 2.61297 65.1873 2.32839 65.0313ZM14.7465 65.0313C14.4619 64.8753 14.2808 64.6412 14.2032 64.3292C14.1255 64.0171 14.1644 63.718 14.3196 63.432L15.0569 62.1057H13.5823C13.2459 62.1057 12.9681 61.9955 12.7487 61.7749C12.5293 61.5544 12.4191 61.2746 12.4181 60.9355C12.4181 60.5974 12.5283 60.3182 12.7487 60.0976C12.9691 59.8771 13.247 59.7663 13.5823 59.7653H15.0569L14.3196 58.5171C14.1644 58.231 14.1255 57.9319 14.2032 57.6199C14.2808 57.3078 14.4619 57.0738 14.7465 56.9177C15.031 56.7617 15.3286 56.7227 15.639 56.8007C15.9495 56.8787 16.1823 57.0608 16.3375 57.3468L17.0748 58.5951L17.8122 57.3468C17.9674 57.0608 18.2002 56.8787 18.5107 56.8007C18.8211 56.7227 19.1186 56.7617 19.4032 56.9177C19.6878 57.0738 19.8689 57.3078 19.9465 57.6199C20.0241 57.9319 19.9853 58.231 19.8301 58.5171L19.0928 59.7653H20.5674C20.9037 59.7653 21.1816 59.8761 21.401 60.0976C21.6204 60.3192 21.7306 60.5985 21.7316 60.9355C21.7316 61.2736 21.6214 61.5534 21.401 61.7749C21.1806 61.9965 20.9027 62.1068 20.5674 62.1057H19.0928L19.8301 63.432C19.9853 63.718 20.0241 64.0171 19.9465 64.3292C19.8689 64.6412 19.6878 64.8753 19.4032 65.0313C19.1186 65.1873 18.8211 65.2263 18.5107 65.1483C18.2002 65.0703 17.9674 64.8883 17.8122 64.6022L17.0748 63.276L16.3375 64.6022C16.1823 64.8883 15.9495 65.0703 15.639 65.1483C15.3286 65.2263 15.031 65.1873 14.7465 65.0313ZM27.1645 65.0313C26.8799 64.8753 26.6988 64.6412 26.6212 64.3292C26.5436 64.0171 26.5824 63.718 26.7376 63.432L27.475 62.1057H26.0003C25.664 62.1057 25.3861 61.9955 25.1668 61.7749C24.9474 61.5544 24.8372 61.2746 24.8361 60.9355C24.8361 60.5974 24.9463 60.3182 25.1668 60.0976C25.3872 59.8771 25.665 59.7663 26.0003 59.7653H27.475L26.7376 58.5171C26.5824 58.231 26.5436 57.9319 26.6212 57.6199C26.6988 57.3078 26.8799 57.0738 27.1645 56.9177C27.4491 56.7617 27.7466 56.7227 28.0571 56.8007C28.3675 56.8787 28.6004 57.0608 28.7556 57.3468L29.4929 58.5951L30.2302 57.3468C30.3855 57.0608 30.6183 56.8787 30.9287 56.8007C31.2392 56.7227 31.5367 56.7617 31.8213 56.9177C32.1059 57.0738 32.287 57.3078 32.3646 57.6199C32.4422 57.9319 32.4034 58.231 32.2482 58.5171L31.5108 59.7653H32.9855C33.3218 59.7653 33.5997 59.8761 33.819 60.0976C34.0384 60.3192 34.1486 60.5985 34.1497 60.9355C34.1497 61.2736 34.0395 61.5534 33.819 61.7749C33.5986 61.9965 33.3208 62.1068 32.9855 62.1057H31.5108L32.2482 63.432C32.4034 63.718 32.4422 64.0171 32.3646 64.3292C32.287 64.6412 32.1059 64.8753 31.8213 65.0313C31.5367 65.1873 31.2392 65.2263 30.9287 65.1483C30.6183 65.0703 30.3855 64.8883 30.2302 64.6022L29.4929 63.276L28.7556 64.6022C28.6004 64.8883 28.3675 65.0703 28.0571 65.1483C27.7466 65.2263 27.4491 65.1873 27.1645 65.0313Z" fill="#CFD0D9"/>
<path d="M71.3967 22.1338C68.0915 20.9968 65.4424 18.3316 64.3113 15.0023C63.593 12.8863 61.6125 11.4648 59.3856 11.4648H30.6791C28.4517 11.4648 26.4712 12.8863 25.7528 15.0023C24.6218 18.3316 21.9747 20.9968 18.669 22.1338C16.565 22.8569 15.1514 24.8447 15.1514 27.0787V34.3469C15.1514 43.8316 17.9917 52.9646 23.3638 60.7574C28.2785 67.888 35.0526 73.4685 42.9518 76.8953C43.6134 77.1822 44.3227 77.3249 45.0321 77.3249C45.7419 77.3249 46.4513 77.1822 47.1119 76.8953C55.0121 73.4685 61.7862 67.888 66.7009 60.7574C72.0729 52.9646 74.9133 43.8316 74.9133 34.3469V27.0787C74.9133 24.8447 73.4997 22.8569 71.3967 22.1338Z" fill="url(#paint0_linear_922_3449)"/>
<ellipse cx="74.5294" cy="16.4759" rx="13.1886" ry="13.6282" fill="white"/>
<path d="M74.5289 0.488281C78.6321 0.488281 82.5673 2.17262 85.4687 5.17075C88.3701 8.16889 90.0001 12.2352 90.0001 16.4752C90.0001 20.7152 88.3701 24.7816 85.4687 27.7797C82.5673 30.7779 78.6321 32.4622 74.5289 32.4622C70.4256 32.4622 66.4905 30.7779 63.589 27.7797C60.6876 24.7816 59.0576 20.7152 59.0576 16.4752C59.0576 12.2352 60.6876 8.16889 63.589 5.17075C66.4905 2.17262 70.4256 0.488281 74.5289 0.488281ZM74.5289 7.33984C74.2483 7.33959 73.9707 7.39982 73.7139 7.51668C73.4571 7.63354 73.2267 7.80446 73.0374 8.01852C72.8481 8.23259 72.7042 8.48509 72.6147 8.7599C72.5251 9.03471 72.4921 9.32579 72.5176 9.61455L73.3243 18.7637C73.3556 19.0713 73.496 19.356 73.7184 19.563C73.9408 19.7699 74.2296 19.8844 74.5289 19.8844C74.8282 19.8844 75.1169 19.7699 75.3393 19.563C75.5618 19.356 75.7021 19.0713 75.7334 18.7637L76.5379 9.61455C76.5634 9.32598 76.5304 9.0351 76.4411 8.76044C76.3517 8.48579 76.2079 8.23339 76.0189 8.01936C75.8298 7.80533 75.5997 7.63437 75.3432 7.51737C75.0866 7.40037 74.8093 7.33991 74.5289 7.33984ZM74.5289 25.6106C74.9978 25.6106 75.4475 25.4181 75.7791 25.0755C76.1107 24.7329 76.297 24.2681 76.297 23.7836C76.297 23.299 76.1107 22.8343 75.7791 22.4916C75.4475 22.149 74.9978 21.9565 74.5289 21.9565C74.0599 21.9565 73.6102 22.149 73.2786 22.4916C72.947 22.8343 72.7607 23.299 72.7607 23.7836C72.7607 24.2681 72.947 24.7329 73.2786 25.0755C73.6102 25.4181 74.0599 25.6106 74.5289 25.6106Z" fill="#E40000"/>
<g clip-path="url(#clip0_922_3449)">
<path d="M52.3016 35.2067C53.4223 35.2067 54.3307 34.2982 54.3307 33.1776C54.3307 32.0569 53.4223 31.1484 52.3016 31.1484C51.1809 31.1484 50.2725 32.0569 50.2725 33.1776C50.2725 34.2982 51.1809 35.2067 52.3016 35.2067Z" fill="white"/>
<path d="M61.3357 34.8187C60.6585 33.0943 59.4166 30.6062 57.3462 28.5457C55.2832 26.4922 52.8215 25.2859 51.1197 24.6354C49.2514 23.9213 47.1283 24.3714 45.7111 25.782L40.731 30.7388C39.2547 32.2081 38.8293 34.4689 39.6722 36.3645C39.9335 36.9525 40.2178 37.5276 40.5216 38.0832L29.5912 49.0135C29.3533 49.2513 29.2197 49.5739 29.2197 49.9103V55.4904C29.2197 56.1908 29.7875 56.7586 30.4879 56.7586H36.068C36.7685 56.7586 37.3363 56.1908 37.3363 55.4904V53.2076L39.619 53.2076C40.3195 53.2076 40.8872 52.6398 40.8872 51.9393V49.6566H43.17C43.8704 49.6566 44.4382 49.0889 44.4382 48.3884C44.4382 47.688 43.8704 47.1202 43.17 47.1202H39.619C38.9186 47.1202 38.3508 47.688 38.3508 48.3884V50.6711L36.068 50.6712C35.3676 50.6712 34.7998 51.239 34.7998 51.9394V54.2222H31.7561V50.4356L43.0023 39.1895C43.4155 38.7763 43.4929 38.1344 43.1899 37.6348C42.7504 36.9104 42.3466 36.1363 41.9899 35.334C41.5715 34.3929 41.7847 33.2687 42.5204 32.5364L47.5005 27.5797C48.2115 26.8721 49.2767 26.6464 50.2143 27.0047C51.6869 27.5675 53.8091 28.6035 55.557 30.3433C57.3157 32.0937 58.3864 34.2473 58.9749 35.7457C59.3421 36.6809 59.1189 37.7433 58.4064 38.4525L53.3661 43.4692C52.6322 44.1996 51.5367 44.4132 50.5751 44.0132C49.782 43.6834 49.0139 43.2915 48.2923 42.8486C47.6954 42.4822 46.9145 42.6691 46.5481 43.2661C46.1817 43.863 46.3686 44.644 46.9655 45.0104C47.7995 45.5222 48.6862 45.9746 49.601 46.3551C51.5123 47.1502 53.6925 46.7229 55.1554 45.2669L60.1956 40.2503C61.6252 38.8275 62.0727 36.6954 61.3357 34.8187Z" fill="white"/>
</g>
<path d="M13.4235 18.4973C14.5506 12.0293 21.6417 -0.416924 40.9888 1.54223" stroke="#318C07" stroke-width="2" stroke-linejoin="round" stroke-dasharray="4 4"/>
<path d="M53.5693 82.1963C62.227 79.4907 80.2999 67.37 83.3301 40.5312" stroke="#F2A20C" stroke-width="2" stroke-linecap="round" stroke-linejoin="round" stroke-dasharray="4 4"/>
<defs>
<linearGradient id="paint0_linear_922_3449" x1="45.0323" y1="11.4648" x2="45.0323" y2="77.3249" gradientUnits="userSpaceOnUse">
<stop stop-color="#0663FF"/>
<stop offset="1" stop-color="#4A8EFF"/>
</linearGradient>
<clipPath id="clip0_922_3449">
<rect width="32.4662" height="32.4662" fill="white" transform="translate(29.2197 24.2969)"/>
</clipPath>
</defs>
</svg>
